<svg width="240" height="109" viewBox="0 0 240 109" fill="none" xmlns="http://www.w3.org/2000/svg">
<path fill-rule="evenodd" clip-rule="evenodd" d="M217.297 109C229.836 109 240 98.8027 240 86.2237C240 73.6446 229.836 63.4473 217.297 63.4473C204.759 63.4473 194.595 73.6446 194.595 86.2237C194.595 98.8027 204.759 109 217.297 109ZM217.297 102.492C226.253 102.492 233.513 95.2087 233.513 86.2237C233.513 77.2386 226.253 69.9548 217.297 69.9548C208.341 69.9548 201.081 77.2386 201.081 86.2237C201.081 95.2087 208.341 102.492 217.297 102.492Z" fill="#222222"/>
<path fill-rule="evenodd" clip-rule="evenodd" d="M166.486 109C179.025 109 189.189 98.8027 189.189 86.2237C189.189 73.6446 179.025 63.4473 166.486 63.4473C153.948 63.4473 143.784 73.6446 143.784 86.2237C143.784 98.8027 153.948 109 166.486 109ZM166.486 102.492C175.442 102.492 182.703 95.2087 182.703 86.2237C182.703 77.2386 175.442 69.9548 166.486 69.9548C157.531 69.9548 150.27 77.2386 150.27 86.2237C150.27 95.2087 157.531 102.492 166.486 102.492Z" fill="#222222"/>
<path fill-rule="evenodd" clip-rule="evenodd" d="M92.973 63.4473V109H115.676C128.214 109 138.378 98.8027 138.378 86.2237C138.378 73.6446 128.214 63.4473 115.676 63.4473H92.973ZM114.595 69.9548V69.9905C114.952 69.9669 115.312 69.9548 115.676 69.9548C124.632 69.9548 131.892 77.2386 131.892 86.2237C131.892 95.2087 124.632 102.492 115.676 102.492C115.312 102.492 114.952 102.48 114.595 102.457V102.492H99.4595V69.9548H114.595Z" fill="#222222"/>
<path d="M47.5676 63.4473V109H86.4865V102.492H54.054V89.4774H83.2432V82.9699H54.054V69.9548H86.4865V63.4473H47.5676Z" fill="#222222"/>
<path d="M0 63.4473H6.48649V109H0V63.4473Z" fill="#222222"/>
<path d="M32.4324 63.4473H41.0811L18.3784 86.2237L41.0811 109H32.4324L9.72973 86.2237L32.4324 63.4473Z" fill="#222222"/>
<path d="M23.9068 33.7433L41.0805 23.7956L23.8939 13.8404L7.92799 23.7878L23.9068 33.7433Z" fill="#222222"/>
<path d="M19.2055 36.4665L1.00602e-06 24.5007L0 47.5912L19.2055 36.4665Z" fill="#222222"/>
<path d="M1.06814e-06 23.075L19.1926 11.1172L2.07348e-06 0L1.06814e-06 23.075Z" fill="#222222"/>
</svg>
